<svg width="571" height="454" viewBox="0 0 571 454" fill="none" xmlns="http://www.w3.org/2000/svg">
<rect width="1.60298" height="692.033" transform="matrix(0.733584 -0.679598 0.686821 0.726826 -354 138.192)" fill="white" fill-opacity="0.5"/>
<rect width="1.60298" height="692.033" transform="matrix(0.733584 -0.679598 0.686821 0.726826 -337.916 123.143)" fill="white" fill-opacity="0.5"/>
<rect width="1.60298" height="692.033" transform="matrix(0.733584 -0.679598 0.686821 0.726826 -321.832 108.094)" fill="white" fill-opacity="0.5"/>
<rect width="1.60298" height="692.033" transform="matrix(0.733584 -0.679598 0.686821 0.726826 -305.747 93.0449)" fill="white" fill-opacity="0.5"/>
<rect width="1.60298" height="692.033" transform="matrix(0.733584 -0.679598 0.686821 0.726826 -289.663 77.9958)" fill="white" fill-opacity="0.5"/>
<rect width="1.60298" height="692.033" transform="matrix(0.733584 -0.679598 0.686821 0.726826 -273.579 62.9468)" fill="white" fill-opacity="0.5"/>
<rect width="1.60298" height="692.033" transform="matrix(0.733584 -0.679598 0.686821 0.726826 -257.495 47.8977)" fill="white" fill-opacity="0.5"/>
<rect width="1.60298" height="692.033" transform="matrix(0.733584 -0.679598 0.686821 0.726826 -241.41 32.8486)" fill="white" fill-opacity="0.5"/>
<rect width="1.60298" height="692.033" transform="matrix(0.733584 -0.679598 0.686821 0.726826 -225.326 17.7998)" fill="white" fill-opacity="0.5"/>
<rect width="1.60298" height="692.033" transform="matrix(0.733584 -0.679598 0.686821 0.726826 -209.242 2.75073)" fill="white" fill-opacity="0.5"/>
<rect width="1.60298" height="692.033" transform="matrix(0.733584 -0.679598 0.686821 0.726826 -193.158 -12.2983)" fill="white" fill-opacity="0.5"/>
<rect width="1.60298" height="692.033" transform="matrix(0.733584 -0.679598 0.686821 0.726826 -177.073 -27.3474)" fill="white" fill-opacity="0.5"/>
<rect width="1.60298" height="692.033" transform="matrix(0.733584 -0.679598 0.686821 0.726826 -160.989 -42.3965)" fill="white" fill-opacity="0.5"/>
<rect width="1.60298" height="692.033" transform="matrix(0.733584 -0.679598 0.686821 0.726826 -144.905 -57.4456)" fill="white" fill-opacity="0.5"/>
<rect width="1.60298" height="692.033" transform="matrix(0.733584 -0.679598 0.686821 0.726826 -128.821 -72.4944)" fill="white" fill-opacity="0.5"/>
<rect width="1.60298" height="692.033" transform="matrix(0.733584 -0.679598 0.686821 0.726826 -112.736 -87.5435)" fill="white" fill-opacity="0.5"/>
<rect width="1.60298" height="692.033" transform="matrix(0.733584 -0.679598 0.686821 0.726826 -96.6521 -102.593)" fill="white" fill-opacity="0.5"/>
<rect width="1.60298" height="692.033" transform="matrix(0.733584 -0.679598 0.686821 0.726826 -80.5679 -117.641)" fill="white" fill-opacity="0.5"/>
<rect width="1.60298" height="692.033" transform="matrix(0.733584 -0.679598 0.686821 0.726826 -64.4836 -132.691)" fill="white" fill-opacity="0.5"/>
<rect width="1.60298" height="692.033" transform="matrix(0.733584 -0.679598 0.686821 0.726826 -48.3994 -147.74)" fill="white" fill-opacity="0.5"/>
<rect width="1.6675" height="688.732" transform="matrix(0.725735 -0.687975 0.678434 0.734661 -29.0238 -165.853)" fill="white" fill-opacity="0.5"/>
<rect width="1.6675" height="648.947" transform="matrix(0.725735 -0.687975 0.678434 0.734661 -12.2983 -181.502)" fill="white" fill-opacity="0.5"/>
<rect width="1.60298" height="618.972" transform="matrix(0.733584 -0.679598 0.686821 0.726826 1.3255 -194.264)" fill="white" fill-opacity="0.5"/>
<rect width="1.6675" height="567.405" transform="matrix(0.725735 -0.687975 0.678434 0.734661 19.8587 -211.589)" fill="white" fill-opacity="0.5"/>
<rect width="1.6675" height="502.742" transform="matrix(0.725735 -0.687975 0.678434 0.734661 35.8871 -226.586)" fill="white" fill-opacity="0.5"/>
<rect width="1.60298" height="469.361" transform="matrix(0.733584 -0.679598 0.686821 0.726826 49.5109 -239.348)" fill="white" fill-opacity="0.5"/>
<rect width="1.60298" height="411.07" transform="matrix(0.733584 -0.679598 0.686821 0.726826 64.7907 -253.644)" fill="white" fill-opacity="0.5"/>
<rect width="1.60298" height="382.495" transform="matrix(0.733584 -0.679598 0.686821 0.726826 79.8599 -267.744)" fill="white" fill-opacity="0.5"/>
</svg>
